<?xml version="1.0" standalone="no"?>
<!DOCTYPE svg PUBLIC "-//W3C//DTD SVG 20010904//EN"
 "http://www.w3.org/TR/2001/REC-SVG-20010904/DTD/svg10.dtd">
<svg version="1.0" xmlns="http://www.w3.org/2000/svg"
 width="320.000000pt" height="332.000000pt" viewBox="0 0 320.000000 332.000000"
 preserveAspectRatio="xMidYMid meet">

<g transform="translate(0.000000,332.000000) scale(0.100000,-0.100000)"
fill="#000000" stroke="none">
<path d="M2112 2553 c-11 -10 -54 -62 -97 -115 l-77 -97 -101 -3 -102 -3 -20
-32 -20 -32 -197 -1 c-109 0 -198 -1 -198 -2 0 -2 7 -25 15 -52 19 -63 19
-139 0 -202 -8 -27 -15 -50 -15 -51 0 -2 90 -3 199 -3 l199 0 6 -26 c10 -37
59 -54 158 -54 l83 0 83 -106 c100 -126 116 -136 177 -106 88 43 395 234 405
252 27 50 -5 110 -58 110 -18 0 -89 -37 -195 -100 -92 -55 -171 -100 -175
-100 -5 0 -38 37 -73 81 -111 141 -109 137 -109 204 l0 61 84 106 c46 58 88
108 93 111 4 3 87 -42 183 -99 138 -83 180 -104 200 -99 47 11 72 62 54 109
-3 9 -100 72 -214 141 -217 130 -248 142 -288 108z"/>
<path d="M825 2389 c-55 -16 -128 -81 -158 -140 -62 -121 -41 -247 57 -344
138 -138 373 -98 460 77 21 42 26 66 26 128 0 173 -116 291 -285 289 -38 0
-83 -5 -100 -10z m186 -131 c104 -57 108 -218 9 -284 -95 -63 -215 -25 -255
81 -37 97 19 199 125 226 34 9 78 1 121 -23z"/>
<path d="M867 2172 c-9 -10 -20 -32 -23 -50 -5 -26 -1 -36 24 -62 36 -35 69
-38 106 -9 33 26 37 88 6 119 -26 26 -90 27 -113 2z"/>
<path d="M1190 1785 c-14 -14 -54 -40 -89 -58 -59 -29 -74 -32 -157 -32 -86 0
-96 2 -163 37 l-72 37 27 -47 c15 -26 121 -206 236 -400 114 -194 208 -357
208 -362 0 -6 -69 -10 -180 -10 -179 0 -181 0 -205 -25 -24 -23 -25 -29 -25
-165 0 -136 1 -142 25 -165 l24 -25 650 0 650 0 20 26 c19 24 21 40 21 164 0
196 15 184 -236 190 l-198 5 -29 50 c-26 43 -109 185 -404 693 -36 61 -69 112
-73 112 -3 0 -17 -11 -30 -25z"/>
</g>
</svg>
