<?xml version="1.0" encoding="UTF-8"?>
<svg version="1.1" xmlns="http://www.w3.org/2000/svg" width="320" height="332">
<path d="M0 0 C3.79660968 1.26553656 4.08805698 2.40119557 6.01171875 5.8359375 C6.59655029 6.8669458 7.18138184 7.8979541 7.78393555 8.96020508 C8.41211182 10.0870874 9.04028809 11.21396973 9.6875 12.375 C11.03769622 14.76397561 12.39428403 17.14930988 13.75 19.53515625 C14.27305977 20.45886269 14.27305977 20.45886269 14.8066864 21.40122986 C18.50812846 27.92705309 22.34354968 34.36974433 26.1875 40.8125 C31.5571884 49.83344658 36.85059265 58.89140837 42.02026367 68.02856445 C42.89800097 69.57816595 43.7943633 71.117385 44.71020508 72.64477539 C46 75 46 75 47.0144043 77.77514648 C48.35224473 80.95002153 49.35896827 82.7604878 52 85 C58.19409145 86.3370937 64.25657943 86.13170299 70.5625 85.9375 C73.1100985 85.89630479 75.65691748 85.86934965 78.20481873 85.85731506 C79.78553729 85.84592223 81.36626541 85.81575631 82.94618225 85.7641449 C87.51005969 85.68513258 90.39598034 86.12379732 94 89 C96.9286837 94.51229591 96.33080185 100.97530473 96.3125 107.0625 C96.32861328 108.13822266 96.34472656 109.21394531 96.36132812 110.32226562 C96.36197266 111.36189453 96.36261719 112.40152344 96.36328125 113.47265625 C96.36626221 114.41375244 96.36924316 115.35484863 96.37231445 116.32446289 C95.92473537 119.5408689 94.90694531 121.38889158 93 124 C89.67828183 126.21447878 88.64462247 126.25365959 84.77554321 126.26742554 C83.69321915 126.27595551 82.61089508 126.28448547 81.49577332 126.29327393 C80.3081691 126.29236755 79.12056488 126.29146118 77.89697266 126.29052734 C76.64635544 126.29724457 75.39573822 126.30396179 74.10722351 126.31088257 C70.67528257 126.32664415 67.24358361 126.33323869 63.8116231 126.33451414 C60.94634967 126.33641319 58.08109946 126.34377083 55.21583498 126.35085833 C48.45507593 126.36714688 41.69437016 126.37202689 34.93359375 126.37060547 C27.96084432 126.3694041 20.98840445 126.3905036 14.01573336 126.4220928 C8.02836833 126.44825093 2.04110442 126.45897296 -3.94631732 126.45769465 C-7.52191269 126.45718484 -11.09723302 126.46287777 -14.67277145 126.48405075 C-18.661365 126.50702448 -22.64953463 126.49791496 -26.63818359 126.48583984 C-28.41351723 126.50269836 -28.41351723 126.50269836 -30.22471619 126.51989746 C-38.22348909 126.45822121 -38.22348909 126.45822121 -42.22897339 124.09457397 C-44.14692808 121.82622975 -44.65997449 120.81975365 -44.796875 117.890625 C-44.84263672 117.10365234 -44.88839844 116.31667969 -44.93554688 115.50585938 C-44.96745117 114.26545898 -44.96745117 114.26545898 -45 113 C-45.03673828 112.16791016 -45.07347656 111.33582031 -45.11132812 110.47851562 C-45.20387467 107.90099577 -45.23446354 105.32905288 -45.25 102.75 C-45.2809375 101.44289062 -45.2809375 101.44289062 -45.3125 100.109375 C-45.34189087 95.28927237 -45.28851786 91.82179103 -42 88 C-38.31640548 85.4661402 -34.47110565 85.74331098 -30.171875 85.8046875 C-29.04836639 85.80893234 -29.04836639 85.80893234 -27.90216064 85.81326294 C-25.51794224 85.8244274 -23.13410421 85.84952469 -20.75 85.875 C-19.13021377 85.88503465 -17.51042164 85.89415965 -15.890625 85.90234375 C-11.92693754 85.92435445 -7.96353319 85.95885825 -4 86 C-10.44677823 74.59744668 -16.99586464 63.26074831 -23.6875 52 C-25.03913049 49.72530077 -26.39075119 47.45059584 -27.7421875 45.17578125 C-28.25544334 44.3118425 -28.25544334 44.3118425 -28.77906799 43.43045044 C-32.59665861 37.00085327 -36.39441227 30.55963756 -40.18154907 24.11206055 C-40.92802406 22.84176996 -41.67522209 21.57190395 -42.42318726 20.30249023 C-43.46763801 18.52960308 -44.50953214 16.75523769 -45.55078125 14.98046875 C-46.14544189 13.96879639 -46.74010254 12.95712402 -47.3527832 11.91479492 C-49.00650365 8.98849161 -50.52346286 6.01902871 -52 3 C-49.84707106 4.07148084 -47.70099355 5.15381582 -45.5625 6.25390625 C-44.716875 6.68574219 -43.87125 7.11757812 -43 7.5625 C-42.154375 7.99691406 -41.30875 8.43132812 -40.4375 8.87890625 C-33.14351539 12.23367161 -23.81256147 12.12443025 -16.07421875 10.31640625 C-10.06018006 8.06231088 -4.55581857 4.55581857 0 0 Z " fill="#646CFF" transform="translate(121,150)"/>
<path d="M0 0 C2.46731539 1.11161528 4.63516128 2.23996447 6.9375 3.625 C7.60628174 4.01526367 8.27506348 4.40552734 8.96411133 4.80761719 C11.31841509 6.19035802 13.65868221 7.59538929 16 9 C16.95970703 9.56750977 17.91941406 10.13501953 18.90820312 10.71972656 C22.00760254 12.55279993 25.09883767 14.39889892 28.1875 16.25 C29.17935303 16.83990723 30.17120605 17.42981445 31.19311523 18.03759766 C36.0050918 20.95537116 40.40410643 23.62763465 44 28 C44.625 31 44.625 31 44 34 C41.9375 36.875 41.9375 36.875 39 39 C32.82869599 39.7563034 29.35645706 37.99914837 24.31640625 34.84375 C23.61603745 34.42202515 22.91566864 34.00030029 22.19407654 33.5657959 C19.9745123 32.22479463 17.76865278 30.86292821 15.5625 29.5 C14.05359135 28.58322344 12.54383336 27.66784327 11.03320312 26.75390625 C7.3454423 24.51864594 3.66981606 22.26459065 0 20 C-7.85063837 26.08730002 -14.8996005 34.09949311 -18.26953125 43.56640625 C-19.04490602 50.91968568 -16.49988507 55.27823898 -12.11279297 60.88305664 C-8.2855547 65.4639978 -4.23648749 69.79717996 0 74 C0.95777344 73.39414063 1.91554688 72.78828125 2.90234375 72.1640625 C6.47515163 69.91048707 10.06312757 67.68206565 13.65527344 65.45947266 C15.21268713 64.49006209 16.7654923 63.51320636 18.31347656 62.52880859 C20.55246452 61.10543149 22.80556922 59.70720154 25.0625 58.3125 C25.75142334 57.86664551 26.44034668 57.42079102 27.15014648 56.96142578 C30.76555594 54.76135273 32.48792584 53.98334718 36.84375 54.125 C40.45415073 55.12590317 41.90356914 55.89728233 44 59 C44.62530075 62.6736419 44.44811759 64.32970027 42.36767578 67.44165039 C39.67578695 70.35032259 37.05350868 72.0266384 33.6171875 73.99609375 C33.00287872 74.35212173 32.38856995 74.70814972 31.75564575 75.07496643 C29.80071738 76.20530013 27.83824669 77.32168923 25.875 78.4375 C24.5801873 79.1820011 23.2859113 79.92743644 21.9921875 80.67382812 C20.09643941 81.76737977 18.19998685 82.85949285 16.29985046 83.94540405 C11.82898116 86.50244749 7.42590593 89.15550221 3.0612793 91.89086914 C0.35534995 93.34687258 -1.92943374 94.09575208 -5.00390625 93.8359375 C-9.83795682 91.81150145 -12.86287646 87.01247343 -16 83 C-16.77472656 82.06929688 -17.54945313 81.13859375 -18.34765625 80.1796875 C-24 73.34104938 -24 73.34104938 -24 71 C-24.61520508 70.9906543 -25.23041016 70.98130859 -25.86425781 70.97167969 C-28.66031086 70.91788915 -31.4547062 70.83426181 -34.25 70.75 C-35.70212891 70.72873047 -35.70212891 70.72873047 -37.18359375 70.70703125 C-44.33854802 70.46030869 -44.33854802 70.46030869 -47.671875 68.140625 C-49 66 -49 66 -49 63 C-62.2 63 -75.4 63 -89 63 C-90 61 -90 61 -89.078125 57.83984375 C-87.96882888 53.88898113 -87.73297071 50.65378614 -87.75 46.5625 C-87.74226562 44.70818359 -87.74226562 44.70818359 -87.734375 42.81640625 C-87.93883023 39.87886572 -88.28393658 37.56389996 -89.01660156 34.76147461 C-89.34112305 33.52018799 -89.66564453 32.27890137 -90 31 C-88.8039917 30.99589111 -87.6079834 30.99178223 -86.37573242 30.98754883 C-81.9416992 30.96579027 -77.50855755 30.9115353 -73.07495117 30.84741211 C-71.15544169 30.82420336 -69.23580434 30.80982965 -67.31616211 30.80444336 C-64.55761775 30.79517454 -61.80109237 30.754232 -59.04296875 30.70703125 C-57.75376778 30.71293022 -57.75376778 30.71293022 -56.43852234 30.71894836 C-54.18192292 30.66358188 -52.18275657 30.57662653 -50 30 C-48.03826315 27.67833269 -48.03826315 27.67833269 -47 25 C-43.85345647 22.90230431 -43.38612768 22.78482782 -39.8671875 22.97265625 C-30.4241422 23.42082879 -30.4241422 23.42082879 -22.02734375 19.84375 C-19.76540476 17.003361 -17.87831165 14.10552787 -16 11 C-14.54805551 9.10384172 -13.06999809 7.22729818 -11.5625 5.375 C-10.92441406 4.55773437 -10.28632813 3.74046875 -9.62890625 2.8984375 C-6.73261169 -0.47710005 -4.3073234 -0.37631869 0 0 Z " fill="#646CFF" transform="translate(219,74)"/>
<path d="M0 0 C5.59886627 4.32256557 9.73932683 10.70217604 11.00390625 17.71484375 C11.83994939 28.72046089 10.71584956 36.26915698 3.87890625 44.96484375 C-2.13804042 51.37865286 -9.46028377 54.43642676 -18.19921875 54.84375 C-26.76116985 54.44913494 -33.8492807 51.71370287 -39.99609375 45.71484375 C-46.25182626 38.60922331 -48.83988887 32.20074015 -48.99609375 22.71484375 C-48.38864482 14.77751112 -44.77553618 7.43181605 -39.10546875 1.85546875 C-27.37854835 -7.4706648 -12.67477253 -8.16046998 0 0 Z M-30.80859375 13.08984375 C-34.46232567 17.47432206 -35.4263757 20.96646143 -35.2421875 26.73046875 C-34.66014261 31.42378312 -32.46603147 34.5062537 -28.99609375 37.52734375 C-24.1607479 41.05311676 -19.80782214 41.40142065 -13.99609375 40.71484375 C-8.67351795 38.89915025 -5.68554996 35.57655305 -2.99609375 30.71484375 C-1.30429909 25.63945978 -1.43237508 21.39519939 -3.62109375 16.52734375 C-5.77136476 12.66135127 -7.92694271 10.63425462 -11.99609375 8.71484375 C-19.47382016 6.74989374 -24.81016183 8.02450124 -30.80859375 13.08984375 Z " fill="#646CFF" transform="translate(110.99609375,96.28515625)"/>
<path d="M0 0 C3.69186542 2.59216083 4.82883761 4.04149064 5.625 8.5 C4.8379108 12.90769952 3.54113128 14.32447859 0 17 C-2.5 18 -2.5 18 -5 18 C-8.5754744 16.25383808 -11.42052379 14.60470336 -12.8125 10.75 C-13.06484901 7.04888118 -11.9381274 5.11484761 -10 2 C-6.24952518 -0.50031654 -4.44143734 -0.53603554 0 0 Z " fill="#646CFF" transform="translate(96,112)"/>
</svg>
